<svg width="425" height="172" viewBox="0 0 425 172" fill="none" xmlns="http://www.w3.org/2000/svg">
<path d="M126 85.5217C126 45.2064 126 25.0487 138.521 12.5244C151.042 0 171.195 0 211.5 0C251.805 0 271.957 0 284.479 12.5244C297 25.0487 297 45.2064 297 85.5217C297 125.837 297 145.995 284.479 158.519C271.957 171.043 251.805 171.043 211.5 171.043C171.195 171.043 151.042 171.043 138.521 158.519C126 145.995 126 125.837 126 85.5217Z" fill="#5D5FEF"/>
<path d="M228.6 111.178C230.961 111.178 232.918 113.111 232.449 115.426C231.62 119.514 229.607 123.303 226.614 126.296C222.606 130.306 217.169 132.559 211.5 132.559C205.831 132.559 200.394 130.306 196.386 126.296C193.393 123.303 191.38 119.514 190.551 115.426C190.082 113.111 192.039 111.178 194.4 111.178H228.6Z" fill="white"/>
<path d="M192.159 56.0909L179.727 91H170.636L158.205 56.0909H166.977L175 82.0227H175.364L183.409 56.0909H192.159ZM199.011 91V56.0909H203.08V91H199.011ZM201.08 50.0909C200.246 50.0909 199.534 49.8106 198.943 49.25C198.352 48.6742 198.057 47.9848 198.057 47.1818C198.057 46.3788 198.352 45.697 198.943 45.1364C199.534 44.5606 200.246 44.2727 201.08 44.2727C201.913 44.2727 202.625 44.5606 203.216 45.1364C203.807 45.697 204.102 46.3788 204.102 47.1818C204.102 47.9848 203.807 48.6742 203.216 49.25C202.625 49.8106 201.913 50.0909 201.08 50.0909ZM227.528 56.0909V59.6136H210.869V56.0909H227.528ZM216.074 47.7273H220.142V81.8864C220.142 83.3409 220.392 84.4848 220.892 85.3182C221.392 86.1364 222.044 86.7197 222.847 87.0682C223.65 87.4015 224.506 87.5682 225.415 87.5682C225.945 87.5682 226.4 87.5379 226.778 87.4773C227.157 87.4015 227.491 87.3258 227.778 87.25L228.642 90.9091C228.248 91.0606 227.763 91.197 227.188 91.3182C226.612 91.4545 225.9 91.5227 225.051 91.5227C223.566 91.5227 222.134 91.197 220.756 90.5455C219.392 89.8939 218.271 88.9242 217.392 87.6364C216.513 86.3485 216.074 84.75 216.074 82.8409V47.7273ZM240.716 104.091C239.595 104.091 238.557 104 237.602 103.818C236.663 103.652 235.913 103.455 235.352 103.227L237.261 96.8182C238.458 97.1667 239.527 97.3333 240.466 97.3182C241.405 97.303 242.231 97.0076 242.943 96.4318C243.67 95.8712 244.284 94.9318 244.784 93.6136L245.489 91.7273L232.83 56.0909H241.557L249.602 82.4545H249.966L258.034 56.0909H266.784L252.807 95.2273C252.155 97.0758 251.292 98.6591 250.216 99.9773C249.14 101.311 247.822 102.326 246.261 103.023C244.716 103.735 242.867 104.091 240.716 104.091Z" fill="white"/>
</svg>
