<svg width="35" height="31" viewBox="0 0 35 31" fill="none" xmlns="http://www.w3.org/2000/svg">
<path d="M17.0651 16.8012L28.7248 29.707C29.5307 30.599 30.8338 30.599 31.6311 29.707L33.5687 27.5624C34.3746 26.6704 34.3746 25.2279 33.5687 24.3454L25.3041 15.1975L33.5687 6.04958C34.3746 5.15757 34.3746 3.71516 33.5687 2.83263L31.6397 0.669013C30.8338 -0.223004 29.5307 -0.223004 28.7334 0.669013L17.0737 13.5748C16.2593 14.4668 16.2593 15.9092 17.0651 16.8012ZM0.604481 13.5748L12.2641 0.669013C13.07 -0.223004 14.3731 -0.223004 15.1705 0.669013L17.108 2.81365C17.9139 3.70567 17.9139 5.14808 17.108 6.0306L8.84339 15.1785L17.108 24.3264C17.9139 25.2185 17.9139 26.6609 17.108 27.5434L15.1705 29.688C14.3646 30.58 13.0614 30.58 12.2641 29.688L0.604481 16.7823C-0.201405 15.9092 -0.201405 14.4668 0.604481 13.5748Z" fill="white"/>
</svg>
