<svg width="98" height="78" viewBox="0 0 98 78" fill="none" xmlns="http://www.w3.org/2000/svg">
<path d="M89.5598 30.1295L87.2649 24.4217L83.1959 14.3C79.7026 5.61234 71.3705 0 61.9646 0H36.0354C26.6315 0 18.2974 5.61234 14.8041 14.3L10.7351 24.4217L8.44025 30.1295C3.51575 31.9922 0 36.6966 0 42.25V52C0 55.2744 1.25767 58.2298 3.26667 60.517V71.5C3.26667 75.0892 6.19237 78 9.8 78H16.3333C19.941 78 22.8667 75.0892 22.8667 71.5V65H75.1333V71.5C75.1333 75.0892 78.059 78 81.6667 78H88.2C91.8076 78 94.7333 75.0892 94.7333 71.5V60.517C96.7423 58.2319 98 55.2764 98 52V42.25C98 36.6966 94.4843 31.9922 89.5598 30.1295V30.1295ZM26.9357 19.1283C28.4241 15.4273 32.0276 13 36.0354 13H61.9646C65.9724 13 69.5759 15.4273 71.0643 19.1283L75.1333 29.25H22.8667L26.9357 19.1283ZM16.3333 51.9594C12.4133 51.9594 9.8 49.3675 9.8 45.4797C9.8 41.5919 12.4133 39 16.3333 39C20.2533 39 26.1333 44.8317 26.1333 48.7195C26.1333 52.6073 20.2533 51.9594 16.3333 51.9594ZM81.6667 51.9594C77.7467 51.9594 71.8667 52.6073 71.8667 48.7195C71.8667 44.8317 77.7467 39 81.6667 39C85.5867 39 88.2 41.5919 88.2 45.4797C88.2 49.3675 85.5867 51.9594 81.6667 51.9594V51.9594Z" fill="white"/>
</svg>
