<svg width="23" height="19" viewBox="0 0 23 19" fill="none" xmlns="http://www.w3.org/2000/svg">
<path d="M19.2825 16.0016C19.2825 16.29 19.0988 16.4978 18.8352 16.4978C18.5637 16.4978 18.388 16.2772 18.388 16.0016C18.388 15.7259 18.5637 15.5054 18.8352 15.5054C19.0988 15.5054 19.2825 15.7259 19.2825 16.0016ZM6.87205 15.5054C6.58854 15.5054 6.42483 15.7259 6.42483 16.0016C6.42483 16.2772 6.58854 16.4978 6.87205 16.4978C7.1316 16.4978 7.30729 16.29 7.30729 16.0016C7.3033 15.7259 7.1316 15.5054 6.87205 15.5054ZM11.5639 15.4926C11.3483 15.4926 11.2165 15.6411 11.1845 15.8616H11.9472C11.9113 15.6199 11.7715 15.4926 11.5639 15.4926ZM15.8684 15.5054C15.5969 15.5054 15.4332 15.7259 15.4332 16.0016C15.4332 16.2772 15.5969 16.4978 15.8684 16.4978C16.1399 16.4978 16.3156 16.29 16.3156 16.0016C16.3156 15.7259 16.1399 15.5054 15.8684 15.5054ZM20.097 16.6123C20.097 16.625 20.109 16.6335 20.109 16.6589C20.109 16.6716 20.097 16.6801 20.097 16.7056C20.0851 16.7183 20.0851 16.7268 20.0771 16.7395C20.0651 16.7522 20.0571 16.7607 20.0332 16.7607C20.0212 16.7734 20.0132 16.7734 19.9892 16.7734C19.9773 16.7734 19.9693 16.7734 19.9453 16.7607C19.9333 16.7607 19.9253 16.748 19.9134 16.7395C19.9014 16.7268 19.8934 16.7183 19.8934 16.7056C19.8814 16.6844 19.8814 16.6716 19.8814 16.6589C19.8814 16.6377 19.8814 16.625 19.8934 16.6123C19.8934 16.5911 19.9054 16.5783 19.9134 16.5656C19.9253 16.5529 19.9333 16.5529 19.9453 16.5444C19.9653 16.5317 19.9773 16.5317 19.9892 16.5317C20.0092 16.5317 20.0212 16.5317 20.0332 16.5444C20.0531 16.5571 20.0651 16.5571 20.0771 16.5656C20.0891 16.5741 20.0851 16.5911 20.097 16.6123ZM20.0092 16.6717C20.0292 16.6717 20.0292 16.6589 20.0411 16.6589C20.0531 16.6462 20.0531 16.6377 20.0531 16.625C20.0531 16.6123 20.0531 16.6038 20.0411 16.5911C20.0292 16.5911 20.0212 16.5783 19.9972 16.5783H19.9333V16.7268H19.9653V16.6674H19.9773L20.0212 16.7268H20.0531L20.0092 16.6717ZM23 2.03571V16.9643C23 18.0882 22.1415 19 21.0833 19H1.91667C0.858507 19 0 18.0882 0 16.9643V2.03571C0 0.91183 0.858507 0 1.91667 0H21.0833C22.1415 0 23 0.91183 23 2.03571ZM2.55556 7.95625C2.55556 11.2007 5.03524 13.8301 8.08594 13.8301C9.17205 13.8301 10.2382 13.4824 11.1406 12.8504C8.22969 10.3355 8.24965 5.58973 11.1406 3.07478C10.2382 2.43862 9.17205 2.09509 8.08594 2.09509C5.03524 2.09085 2.55556 4.72455 2.55556 7.95625ZM11.5 12.5705C14.3151 10.2379 14.3031 5.69152 11.5 3.34621C8.69688 5.69152 8.6849 10.2422 11.5 12.5705ZM5.81788 15.8065C5.81788 15.4375 5.59028 15.1958 5.2309 15.183C5.04722 15.183 4.85156 15.2424 4.71979 15.4587C4.62396 15.2848 4.46024 15.183 4.23264 15.183C4.0809 15.183 3.92917 15.2424 3.80938 15.4121V15.2254H3.48194V16.7819H3.80938C3.80938 15.9804 3.70955 15.5011 4.16875 15.5011C4.57604 15.5011 4.49618 15.9337 4.49618 16.7819H4.81163C4.81163 16.0058 4.71181 15.5011 5.17101 15.5011C5.5783 15.5011 5.49844 15.9252 5.49844 16.7819H5.82587V15.8065H5.81788ZM7.61076 15.2254H7.29531V15.4121C7.1875 15.2721 7.03576 15.183 6.82812 15.183C6.41684 15.183 6.10139 15.5308 6.10139 16.0016C6.10139 16.4766 6.41684 16.8201 6.82812 16.8201C7.03576 16.8201 7.1875 16.7395 7.29531 16.5911V16.7862H7.61076V15.2254ZM9.22795 16.3112C9.22795 15.675 8.31354 15.9634 8.31354 15.6665C8.31354 15.4248 8.78872 15.4629 9.05226 15.6199L9.18403 15.3442C8.80868 15.0855 7.97813 15.0897 7.97813 15.692C7.97813 16.2984 8.89253 16.044 8.89253 16.3281C8.89253 16.5953 8.35347 16.5741 8.06597 16.3621L7.92622 16.6292C8.37344 16.9516 9.22795 16.8837 9.22795 16.3112ZM10.6415 16.7056L10.5536 16.4172C10.4019 16.5063 10.0665 16.6038 10.0665 16.2433V15.5393H10.5896V15.2254H10.0665V14.7504H9.73906V15.2254H9.43559V15.535H9.73906V16.2433C9.73906 16.9897 10.4299 16.854 10.6415 16.7056ZM11.1726 16.1373H12.2707C12.2707 15.4502 11.9752 15.1788 11.5759 15.1788C11.1526 15.1788 10.8491 15.5138 10.8491 15.9973C10.8491 16.8667 11.7516 17.0109 12.1988 16.5996L12.047 16.3451C11.7356 16.6165 11.2644 16.5911 11.1726 16.1373ZM13.5325 15.2254C13.3488 15.1406 13.0693 15.1491 12.9255 15.4121V15.2254H12.5981V16.7819H12.9255V15.904C12.9255 15.4121 13.3049 15.4757 13.4366 15.5478L13.5325 15.2254ZM13.9557 16.0016C13.9557 15.5181 14.4189 15.3612 14.7823 15.6453L14.934 15.3696C14.4708 14.9837 13.6283 15.1958 13.6283 16.0058C13.6283 16.8455 14.5227 17.0152 14.934 16.642L14.7823 16.3663C14.4149 16.642 13.9557 16.4766 13.9557 16.0016ZM16.6191 15.2254H16.2917V15.4121C15.9602 14.9455 15.0977 15.2085 15.0977 16.0016C15.0977 16.8158 15.9922 17.0491 16.2917 16.5911V16.7862H16.6191V15.2254ZM17.9648 15.2254C17.8689 15.1746 17.5255 15.1025 17.3578 15.4121V15.2254H17.0424V16.7819H17.3578V15.904C17.3578 15.4375 17.7172 15.4672 17.8689 15.5478L17.9648 15.2254ZM19.574 14.5935H19.2585V15.4121C18.9311 14.9498 18.0646 15.1958 18.0646 16.0016C18.0646 16.8243 18.963 17.0449 19.2585 16.5911V16.7862H19.574V14.5935ZM19.8774 11.4085V11.6036H19.9094V11.4085H19.9852V11.3746H19.8016V11.4085H19.8774ZM20.141 16.6589C20.141 16.6377 20.141 16.6123 20.129 16.5911C20.117 16.5783 20.109 16.5571 20.097 16.5444C20.0851 16.5317 20.0651 16.5232 20.0531 16.5105C20.0332 16.5105 20.0092 16.4978 19.9892 16.4978C19.9773 16.4978 19.9573 16.5105 19.9333 16.5105C19.9134 16.5232 19.9014 16.5317 19.8894 16.5444C19.8694 16.5571 19.8575 16.5783 19.8575 16.5911C19.8455 16.6123 19.8455 16.6377 19.8455 16.6589C19.8455 16.6716 19.8455 16.6929 19.8575 16.7183C19.8575 16.731 19.8694 16.7522 19.8894 16.765C19.9014 16.7777 19.9094 16.7862 19.9333 16.7989C19.9533 16.8116 19.9773 16.8116 19.9892 16.8116C20.0092 16.8116 20.0332 16.8116 20.0531 16.7989C20.0651 16.7862 20.0851 16.7777 20.097 16.765C20.109 16.7522 20.117 16.731 20.129 16.7183C20.141 16.6929 20.141 16.6716 20.141 16.6589ZM20.2688 11.3703H20.2128L20.149 11.5188L20.0851 11.3703H20.0292V11.5993H20.0611V11.4254L20.125 11.5739H20.1689L20.2248 11.4254V11.5993H20.2688V11.3703ZM20.4444 7.95625C20.4444 4.72455 17.9648 2.09085 14.9141 2.09085C13.828 2.09085 12.7618 2.43862 11.8594 3.07054C14.7384 5.58549 14.7823 10.344 11.8594 12.8462C12.7618 13.4824 13.8359 13.8259 14.9141 13.8259C17.9648 13.8301 20.4444 11.2007 20.4444 7.95625Z" fill="white"/>
</svg>
