<svg width="48" height="51" viewBox="0 0 48 51" fill="none" xmlns="http://www.w3.org/2000/svg">
<path d="M6 22.3125H7.26562C9.58125 27.9404 14.85 31.875 21 31.875C27.15 31.875 32.4188 27.9404 34.7344 22.3125H36C36.825 22.3125 37.5 21.5953 37.5 20.7188V11.1562C37.5 10.2797 36.825 9.5625 36 9.5625H34.7344C32.4188 3.93457 27.15 0 21 0C14.85 0 9.58125 3.93457 7.26562 9.5625H6C5.175 9.5625 4.5 10.2797 4.5 11.1562V20.7188C4.5 21.5953 5.175 22.3125 6 22.3125ZM9.75 13.5469C9.75 11.3455 11.7656 9.5625 14.25 9.5625H27.75C30.2344 9.5625 32.25 11.3455 32.25 13.5469V15.9375C32.25 21.2168 28.2188 25.5 23.25 25.5H18.75C13.7812 25.5 9.75 21.2168 9.75 15.9375V13.5469ZM16.5 20.7188L17.625 17.1328L21 15.9375L17.625 14.7422L16.5 11.1562L15.375 14.7422L12 15.9375L15.375 17.1328L16.5 20.7188ZM30.7125 32.0145C27.9094 33.9369 24.5812 35.0625 21 35.0625C17.4188 35.0625 14.0906 33.9369 11.2875 32.0145C4.95938 32.7217 0 38.3496 0 45.2625V46.2188C0 48.8584 2.01562 51 4.5 51H12V44.625C12 42.8619 13.3406 41.4375 15 41.4375H27C28.6594 41.4375 30 42.8619 30 44.625V51H37.5C39.9844 51 42 48.8584 42 46.2188V45.2625C42 38.3496 37.0406 32.7217 30.7125 32.0145ZM25.5 44.625C24.675 44.625 24 45.3422 24 46.2188C24 47.0953 24.675 47.8125 25.5 47.8125C26.325 47.8125 27 47.0953 27 46.2188C27 45.3422 26.325 44.625 25.5 44.625ZM16.5 44.625C15.675 44.625 15 45.3422 15 46.2188V51H18V46.2188C18 45.3422 17.325 44.625 16.5 44.625Z" fill="white"/>
</svg>
