<svg width="98" height="78" viewBox="0 0 98 78" fill="none" xmlns="http://www.w3.org/2000/svg">
<path d="M95.7006 22.75H84.2411L81.0561 14.3C77.7831 5.61234 69.9718 0 61.1537 0H36.8451C28.0289 0 20.2157 5.61234 16.9407 14.3L13.7557 22.75H2.2981C0.803211 22.75 -0.293548 24.2409 0.0701243 25.7786L1.21856 30.6536C1.47313 31.7383 2.39189 32.5 3.44653 32.5H7.28806C4.71747 34.8827 3.06181 38.3459 3.06181 42.25V52C3.06181 55.2744 4.24087 58.2298 6.12431 60.517V71.5C6.12431 75.0892 8.86717 78 12.2493 78H18.3743C21.7565 78 24.4993 75.0892 24.4993 71.5V65H73.4994V71.5C73.4994 75.0892 76.2423 78 79.6244 78H85.7494C89.1316 78 91.8744 75.0892 91.8744 71.5V60.517C93.7579 58.2319 94.9369 55.2764 94.9369 52V42.25C94.9369 38.3459 93.2813 34.8827 90.7126 32.5H94.5541C95.6088 32.5 96.5275 31.7383 96.7821 30.6536L97.9305 25.7786C98.2923 24.2409 97.1955 22.75 95.7006 22.75ZM28.3141 19.1283C29.7094 15.4273 33.0877 13 36.8451 13H61.1537C64.911 13 68.2893 15.4273 69.6847 19.1283L73.4994 29.25H24.4993L28.3141 19.1283ZM18.3743 51.9594C14.6993 51.9594 12.2493 49.3675 12.2493 45.4797C12.2493 41.5919 14.6993 39 18.3743 39C22.0493 39 27.5618 44.8317 27.5618 48.7195C27.5618 52.6073 22.0493 51.9594 18.3743 51.9594ZM79.6244 51.9594C75.9494 51.9594 70.4369 52.6073 70.4369 48.7195C70.4369 44.8317 75.9494 39 79.6244 39C83.2994 39 85.7494 41.5919 85.7494 45.4797C85.7494 49.3675 83.2994 51.9594 79.6244 51.9594V51.9594Z" fill="white"/>
<path d="M56.5434 36L60 42.875H56.1385L53.4955 36H56.5434ZM51.6545 36L54.2976 42.875H43.7024L46.3455 36H51.6545ZM41.4566 36H44.5045L41.8615 42.875H38L41.4566 36ZM38 44.25H41.8462L46.5441 55.0652C46.6014 55.1984 46.441 55.3187 46.3531 55.207L38 44.25ZM43.6604 44.25H54.3396L49.1069 57.9227C49.0687 58.0258 48.9351 58.0258 48.8969 57.9227L43.6604 44.25ZM51.4559 55.0652L56.1538 44.25H60L51.6469 55.2027C51.559 55.3187 51.3986 55.1984 51.4559 55.0652V55.0652Z" fill="#5D5FEF"/>
</svg>
