<svg width="45" height="35" viewBox="0 0 45 35" fill="none" xmlns="http://www.w3.org/2000/svg">
<path d="M41.25 0H3.75C1.67969 0 0 1.67969 0 3.75V31.25C0 33.3203 1.67969 35 3.75 35H41.25C43.3203 35 45 33.3203 45 31.25V3.75C45 1.67969 43.3203 0 41.25 0ZM13.75 7.5C16.5078 7.5 18.75 9.74219 18.75 12.5C18.75 15.2578 16.5078 17.5 13.75 17.5C10.9922 17.5 8.75 15.2578 8.75 12.5C8.75 9.74219 10.9922 7.5 13.75 7.5ZM22.5 26C22.5 26.8281 21.7188 27.5 20.75 27.5H6.75C5.78125 27.5 5 26.8281 5 26V24.5C5 22.0156 7.35156 20 10.25 20H10.6406C11.6016 20.3984 12.6484 20.625 13.75 20.625C14.8516 20.625 15.9062 20.3984 16.8594 20H17.25C20.1484 20 22.5 22.0156 22.5 24.5V26ZM40 21.875C40 22.2187 39.7188 22.5 39.375 22.5H28.125C27.7812 22.5 27.5 22.2187 27.5 21.875V20.625C27.5 20.2812 27.7812 20 28.125 20H39.375C39.7188 20 40 20.2812 40 20.625V21.875ZM40 16.875C40 17.2187 39.7188 17.5 39.375 17.5H28.125C27.7812 17.5 27.5 17.2187 27.5 16.875V15.625C27.5 15.2812 27.7812 15 28.125 15H39.375C39.7188 15 40 15.2812 40 15.625V16.875ZM40 11.875C40 12.2187 39.7188 12.5 39.375 12.5H28.125C27.7812 12.5 27.5 12.2187 27.5 11.875V10.625C27.5 10.2812 27.7812 10 28.125 10H39.375C39.7188 10 40 10.2812 40 10.625V11.875Z" fill="white"/>
</svg>
