<svg width="98" height="78" viewBox="0 0 98 78" fill="none" xmlns="http://www.w3.org/2000/svg">
<path d="M95.7006 22.75H84.2411L81.0561 14.3C77.7831 5.61234 69.9718 0 61.1537 0H36.8451C28.0289 0 20.2157 5.61234 16.9407 14.3L13.7557 22.75H2.2981C0.803211 22.75 -0.293548 24.2409 0.0701243 25.7786L1.21856 30.6536C1.47313 31.7383 2.39189 32.5 3.44653 32.5H7.28806C4.71747 34.8827 3.06181 38.3459 3.06181 42.25V52C3.06181 55.2744 4.24087 58.2298 6.12431 60.517V71.5C6.12431 75.0892 8.86717 78 12.2493 78H18.3743C21.7565 78 24.4993 75.0892 24.4993 71.5V65H73.4994V71.5C73.4994 75.0892 76.2423 78 79.6244 78H85.7494C89.1316 78 91.8744 75.0892 91.8744 71.5V60.517C93.7579 58.2319 94.9369 55.2764 94.9369 52V42.25C94.9369 38.3459 93.2813 34.8827 90.7126 32.5H94.5541C95.6088 32.5 96.5275 31.7383 96.7821 30.6536L97.9305 25.7786C98.2923 24.2409 97.1955 22.75 95.7006 22.75ZM28.3141 19.1283C29.7094 15.4273 33.0877 13 36.8451 13H61.1537C64.911 13 68.2893 15.4273 69.6847 19.1283L73.4994 29.25H24.4993L28.3141 19.1283ZM18.3743 51.9594C14.6993 51.9594 12.2493 49.3675 12.2493 45.4797C12.2493 41.5919 14.6993 39 18.3743 39C22.0493 39 27.5618 44.8317 27.5618 48.7195C27.5618 52.6073 22.0493 51.9594 18.3743 51.9594ZM79.6244 51.9594C75.9494 51.9594 70.4369 52.6073 70.4369 48.7195C70.4369 44.8317 75.9494 39 79.6244 39C83.2994 39 85.7494 41.5919 85.7494 45.4797C85.7494 49.3675 83.2994 51.9594 79.6244 51.9594Z" fill="white"/>
<path d="M58.8617 35.4178C58.6478 34.8807 58.0366 34.8592 57.7807 35.3662C56.5966 37.6819 54.4766 39.1255 52.0548 39.1255H48.999C44.95 39.1255 41.6649 42.8203 41.6649 47.3744C41.6649 47.6751 41.6955 47.9629 41.7222 48.2551C44.1593 46.2917 47.6773 44.6247 52.666 44.6247C53.0021 44.6247 53.2771 44.9341 53.2771 45.3121C53.2771 45.6902 53.0021 45.9995 52.666 45.9995C43.063 45.9995 38.9911 52.6201 38.0896 55.1077C37.8375 55.808 38.1354 56.6071 38.7581 56.895C39.3845 57.1871 40.095 56.8477 40.3547 56.1517C40.412 55.997 41.1531 54.0938 43.1012 52.2592C44.3388 54.1453 46.6918 55.9455 49.782 55.576C55.7791 55.0862 60 49.037 60 41.6302C60 39.4735 59.5875 37.2394 58.8617 35.4178V35.4178Z" fill="#5D5FEF"/>
</svg>
