<svg width="54" height="49" viewBox="0 0 54 49" fill="none" xmlns="http://www.w3.org/2000/svg">
<path d="M27.0339 27.0364L8.60938 47.4301C7.33593 48.8396 5.27672 48.8396 4.01681 47.4301L0.955093 44.0411C-0.318364 42.6316 -0.318364 40.3523 0.955093 38.9577L14.0148 24.5022L0.955093 10.0468C-0.318364 8.6372 -0.318364 6.35791 0.955093 4.96335L4.00326 1.54441C5.27672 0.134854 7.33593 0.134854 8.59584 1.54441L27.0203 21.938C28.3073 23.3476 28.3073 25.6269 27.0339 27.0364ZM53.0449 21.938L34.6204 1.54441C33.347 0.134854 31.2878 0.134854 30.0278 1.54441L26.9661 4.93335C25.6927 6.34291 25.6927 8.6222 26.9661 10.0168L40.0258 24.4722L26.9661 38.9277C25.6927 40.3373 25.6927 42.6166 26.9661 44.0111L30.0278 47.4001C31.3013 48.8096 33.3605 48.8096 34.6204 47.4001L53.0449 27.0065C54.3184 25.6269 54.3184 23.3476 53.0449 21.938Z" fill="white"/>
</svg>
