<svg width="118" height="118" viewBox="0 0 118 118" fill="none" xmlns="http://www.w3.org/2000/svg">
<path d="M59 0C26.4073 0 0 26.4073 0 59C0 91.5927 26.4073 118 59 118C91.5927 118 118 91.5927 118 59C118 26.4073 91.5927 0 59 0ZM59 22.8387C70.5621 22.8387 79.9355 32.2121 79.9355 43.7742C79.9355 55.3363 70.5621 64.7097 59 64.7097C47.4379 64.7097 38.0645 55.3363 38.0645 43.7742C38.0645 32.2121 47.4379 22.8387 59 22.8387ZM59 104.677C45.0351 104.677 32.5214 98.3492 24.1472 88.4524C28.6198 80.0306 37.3746 74.2258 47.5806 74.2258C48.1516 74.2258 48.7226 74.321 49.2698 74.4875C52.3625 75.4867 55.598 76.129 59 76.129C62.402 76.129 65.6613 75.4867 68.7302 74.4875C69.2774 74.321 69.8484 74.2258 70.4194 74.2258C80.6254 74.2258 89.3802 80.0306 93.8528 88.4524C85.4786 98.3492 72.9649 104.677 59 104.677Z" fill="white"/>
</svg>
